<?xml version="1.0" encoding="UTF-8"?>
<svg id="Capa_1" xmlns="http://www.w3.org/2000/svg" version="1.1" viewBox="0 0 514 512">
  <!-- Generator: Adobe Illustrator 29.0.0, SVG Export Plug-In . SVG Version: 2.1.0 Build 186)  -->
  <defs>
    <style>
      .st0 {
        fill: #fff;
      }

      .st1 {
        fill: #1f6feb;
      }
    </style>
  </defs>
  <path class="st1" d="M257,505c-48.1,0-94.5-13.7-134.7-39.6l-76.4,30.1c-8.1,3.2-17.3,1.3-23.5-4.9-6.2-6.2-8.1-15.4-4.9-23.5l30.1-76.4c-25.9-40.2-39.6-86.6-39.6-134.7s6.6-66.2,19.6-96.9c12.5-29.6,30.5-56.3,53.3-79.1,22.9-22.9,49.5-40.8,79.1-53.3,30.7-13,63.3-19.6,96.9-19.6s66.2,6.6,96.9,19.6c29.6,12.5,56.3,30.5,79.1,53.3,22.9,22.9,40.8,49.5,53.3,79.1,13,30.7,19.6,63.3,19.6,96.9s-6.6,66.2-19.6,96.9c-12.5,29.6-30.5,56.3-53.3,79.1-22.9,22.9-49.5,40.8-79.1,53.3-30.7,13-63.3,19.6-96.9,19.6Z"/>
  <circle class="st0" cx="263.8" cy="149.8" r="35.2"/>
  <path class="st0" d="M316,367.8c-6.3,9.3-24.2,27.7-66.1,27.7s-48.1-24.5-44-49.4l17.8-106.5c1.4-8.2-5-15.7-13.3-15.7h-6.6c-5.8,0-10.4-4.7-10.4-10.4s1.2-5.5,3.1-7.4c1.9-1.9,4.5-3.1,7.4-3.1h70.5c13.8,0,24.2,12.6,21.6,26.1l-23.6,122.5c-1.5,7.8,4.5,15,12.4,15s9.8-1.1,13.4-2.5c3.6-1.5,6.4-3.4,8.3-5.1,2.4-2.1,6-2.1,8.5,0,2.6,2.2,3.1,5.9,1.2,8.7Z"/>
</svg>